<?xml version="1.0" encoding="UTF-8" standalone="no"?>
<svg width="1440px" height="1024px" viewBox="0 0 1440 1024" version="1.1" xmlns="http://www.w3.org/2000/svg" xmlns:xlink="http://www.w3.org/1999/xlink">
    <!-- Generator: Sketch 40.3 (33839) - http://www.bohemiancoding.com/sketch -->
    <title>Desktop HD</title>
    <desc>Created with Sketch.</desc>
    <defs></defs>
    <g id="Page-1" stroke="none" stroke-width="1" fill="none" fill-rule="evenodd">
        <g id="Desktop-HD" stroke-width="0.5">
            <path d="M696.585938,633.648437 C713.473026,537.542419 697.424074,610.173601 755.015625,458.617187 C765.239156,431.713212 772.670838,403.727895 784.1875,377.351562 C803.844621,332.331335 844.064573,263.610841 884.203125,231.5 C909.911214,210.933529 953.352747,214.60472 982.828125,221.773438 C996.492346,225.096718 1008.79466,232.856951 1022.41406,236.359375 C1122.93825,262.210605 1107.97678,248.501085 1184.94531,278.03125 C1223.23922,292.723299 1261.08686,308.566976 1298.85156,324.570312 C1324.7663,335.552056 1366.24604,348.892839 1380.10938,378.742188 C1411.63535,446.621217 1320.59146,501.786666 1273.14844,529.460937 C1259.45455,537.448802 1245.53176,545.049319 1231.47656,552.382812 C1213.57778,561.721752 1195.72016,571.195146 1177.30469,579.46875 C1147.77007,592.737902 1117.4346,604.154576 1087.70312,616.976562 C1068.57868,625.224166 1041.89686,625.078838 1030.75,642.671875 C1018.10334,662.632033 1027.25113,689.817521 1026.58594,713.4375 C1023.79474,812.548747 1034.84386,833.638927 1064.78125,929.445312" id="Path" stroke="#1D00FF"></path>
            <path d="M1117.57031,416.859375 C1189.0964,416.859375 1133.13314,412.43117 1203,573.132812 C1214.93081,600.575014 1225.94382,628.423324 1236.33594,656.484375 C1252.22842,699.397665 1251.36173,708.107847 1216.89062,739.132812 C1206.38176,748.591091 1194.15742,756.132206 1184.25,766.21875 C1175.55703,775.068882 1156.06121,821.09375 1139.10156,821.09375" id="Path-2" stroke="#1D00FF"></path>
            <path d="M984.742188,293.3125 C1018.894,247.782851 1063.15035,210.999352 1097.25781,165.515625 C1102.6911,158.270115 1107.7924,150.693414 1111.84375,142.59375 C1131.99514,102.306078 1111.92966,87.064969 1074.34375,79.390625 C1037.86222,71.9417762 1001.60638,62.681464 964.601562,58.5546875 C953.596996,57.3274587 860.736238,48.8306767 843.75,79.390625 C828.222312,107.326496 844.873718,148.39493 854.164062,175.9375 C863.453309,203.476812 870.237177,235.084433 900.703125,246.085938 C919.907481,253.020788 970.154546,270.732565 996.546875,275.257812 C1033.00724,281.509333 1037.82021,238.445312 1081.20312,238.445312" id="Path-3" stroke="#1D00FF"></path>
            <path d="M1110.89062,285.148438 C1112.97396,283.757812 1115.3531,282.731231 1117.14062,280.976562 C1120.84715,277.338175 1046.07517,326.888046 1023.46094,341.40625 C997.998517,357.752975 973.265966,375.471503 946.367188,389.328125 C927.215337,399.193999 906.555377,406.002442 885.9375,412.25 C860.62695,419.919515 834.910392,426.530595 808.84375,431 C786.160763,434.889241 763.067297,436.032568 740.085938,437.257813 C723.903191,438.120591 707.66995,437.640925 691.46875,437.257813 C678.256224,436.945374 664.785935,437.996095 651.875,435.171875 C642.160973,433.046967 633.604629,427.272238 624.789062,422.671875 C617.607481,418.924199 609.833951,415.735066 603.953125,410.164062 C596.389787,402.999188 590.777889,393.960331 585.195312,385.164062 C583.074886,381.822982 581.48448,377.977983 581.03125,374.046875 C579.865,363.93135 573.281041,339.521305 593.53125,349.046875 C598.271816,351.276807 602.097638,355.580336 604.648438,360.15625 C610.112198,369.957762 613.297642,380.873963 617.148438,391.414062 C626.495424,416.997909 633.726304,443.37855 644.234375,468.507812 C667.881213,525.057449 701.7265,553.789791 763.007813,566.4375 C792.156287,572.453387 822.202525,572.899097 851.90625,574.773438 C921.310764,579.152944 990.920944,580.057377 1060.27344,585.195313 C1066.19218,585.633799 1073.45434,586.645636 1076.94531,591.445313 C1080.21414,595.939562 1078.419,602.758855 1076.94531,608.117188 C1073.25176,621.546908 1067.98937,634.598535 1061.66406,647.007812 C1049.65234,670.572953 1035.67822,693.09256 1022.07031,715.773438 C1012.75354,731.302103 1003.0142,746.583691 992.90625,761.609375 C977.310858,784.79227 960.346501,807.042021 944.976562,830.375 C941.104034,836.253854 937.257422,842.375262 935.257812,849.125 C934.863549,850.455849 938.083855,849.494193 939.421875,849.125 C970.491135,840.55223 997.015243,827.919822 1029.01562,830.375 C1032.54759,830.645985 1036.78925,830.10047 1039.4375,832.453125 C1043.62403,836.172355 1045.58105,841.886088 1047.77344,847.039063 C1050.23953,852.835362 1052.77665,858.826645 1053.32812,865.101563 C1054.64546,880.090661 1053.91461,895.206746 1053.32812,910.242188 C1053.21648,913.104331 1052.31663,915.922958 1051.24219,918.578125 C1048.36745,925.682217 1046.05502,933.233687 1041.52344,939.414063 C1035.71555,947.335122 1028.07985,953.782556 1020.6875,960.25 C1016.9166,963.549094 1012.60752,966.241159 1008.17969,968.585937 C1000.76432,972.512778 993.414541,977.007085 985.265625,979.007813 C954.575318,986.542918 923.31438,991.560102 892.195312,997.0625 C885.321902,998.27784 878.236175,997.952424 871.359375,999.148438 C862.228022,1000.73656 853.157341,1002.78288 844.265625,1005.39844 C841.284713,1006.27529 838.865936,1008.55387 835.929688,1009.57031 C832.799139,1010.65402 829.335081,1010.54641 826.210938,1011.64844 C825.283619,1011.97555 825.071933,1013.46935 824.125,1013.73438 C820.777285,1014.67131 817.265018,1015.07223 813.789062,1015.125 C786.706246,1015.53619 759.573474,1016.66323 732.53125,1015.125 C710.626969,1013.87903 689.074017,1008.96189 667.242188,1006.78906 C640.207216,1004.09839 613.104786,1002.01855 585.976562,1000.53906 C574.881072,999.93395 563.629695,998.890908 552.640625,1000.53906 C549.206122,1001.05417 546.699735,1004.27413 544.304688,1006.78906 C542.001969,1009.20705 540.887733,1012.55999 538.75,1015.125 C532.766982,1022.30385 525.547018,1028.44587 519.992188,1035.96094 C513.691178,1044.48551 508.435778,1053.75802 503.328125,1063.04688 C500.779469,1067.6819 499.683612,1073.02949 497.078125,1077.63281 C492.713071,1085.3449 486.866354,1092.15245 482.492188,1099.85938 C477.125878,1109.31437 472.462944,1119.16055 467.90625,1129.03125 C464.122131,1137.2284 460.088674,1145.38657 457.484375,1154.03125 C454.27493,1164.68464 452.854167,1175.79688 450.539062,1186.67969" id="Path-4" stroke="#1D00FF"></path>
            <path d="M794.789062,992.289063 C817.730298,835.500057 803.181519,903.143223 882.304688,669.320313 C902.238724,610.411722 923.801967,552.031083 946.898438,494.289062 C952.981034,479.082349 997.859925,378.873823 1016.35156,351.90625 C1040.58213,316.569212 1031.37839,339.228839 1051.07812,320.65625 C1055.73714,316.263808 1059.05044,310.598002 1063.57813,306.070313 C1111.85854,257.789894 1230.55899,218.29235 1283.75,199.101563 C1356.02613,173.025051 1389.89139,173.43923 1462.25781,171.320313 C1462.9094,171.301234 1463.60335,170.588297 1463.64062,169.9375 C1464.07445,162.363977 1465.38603,154.562099 1463.64062,147.179688 C1460.05744,132.024197 1418.73578,100.877423 1409.46875,95.0859375 C1357.97289,62.9032897 1292.33431,49.046349 1233.05469,43 C1217.81631,41.44573 1181.48823,42.0819492 1166.375,49.25 C1135.08271,64.0916106 1105.90507,83.0463406 1076.07812,100.648438 C999.498268,145.841332 1054.10059,112.211914 1035.79688,130.515625 C1034.69996,131.61254 1030.08214,132.636869 1031.63281,132.59375 C1058.0523,131.859111 1085.25011,121.714515 1110.8125,128.429688 C1118.72685,130.508767 1104.98003,143.881528 1100.39062,150.65625 C1083.17171,176.074209 1057.98679,191.194998 1027.46094,193.023438 C1009.43595,194.1031 991.303045,194.273322 973.289063,193.023438 C957.190705,191.906467 957.245132,183.764892 944.8125,179.828125 C933.195942,176.149766 920.986113,174.541124 909.390625,170.796875 C889.434517,164.352934 876.98528,155.285026 856.601562,152.734375 C849.020062,151.785688 840.853202,155.364933 833.679688,152.734375 C831.201007,151.825433 833.561401,146.546826 835.765625,145.09375 C865.401579,125.557034 896.261912,107.879721 927.445312,90.921875 C997.991669,52.5580594 1063.92109,75.1439002 1136.50781,83.9765625 C1147.44808,85.3078216 1185.10795,80.0141309 1183.04688,102.726563 C1181.41608,120.697423 1156.9647,145.655168 1149.00781,154.125 C1124.20813,180.523409 1090.17308,208.083468 1061.5,229.140625 C991.257605,280.725784 916.772742,322.972287 846.875,374.992188 C806.522349,405.023785 758.651995,440.751239 731.585938,484.734375 C725.074556,495.31556 719.504529,506.525305 714.914062,518.070312 C711.822385,525.845872 709.505738,534.057587 708.664062,542.382813 C707.406467,554.822007 707.884809,567.412329 708.664062,579.890625 C709.276274,589.694051 710.130116,599.617781 712.828125,609.0625 C714.366302,614.447082 717.552403,619.368761 721.164062,623.648438 C730.138265,634.282522 739.140428,645.244603 750.335938,653.507813 C778.23936,674.10284 809.059156,690.440732 837.851562,709.773438 C857.692958,723.095973 876.588435,737.779981 896.195312,751.445313 C899.516723,753.760223 902.923645,756.020209 906.609375,757.695313 C910.607596,759.512438 916.590765,758.261554 919.109375,761.859375 C922.321235,766.447501 919.45666,773.207338 921.195312,778.53125 C930.608721,807.355954 940.227627,836.211829 952.453125,863.960938 C954.964502,869.661194 960.936708,873.090435 964.953125,877.851563 C967.192453,880.506099 969.416981,883.209105 971.203125,886.1875 C971.560729,886.783804 971.203125,887.578125 971.203125,888.273438" id="Path-5" stroke="#FF001F"></path>
        </g>
    </g>
</svg>