<?xml version="1.0" encoding="UTF-8"?>
<svg width="200px" height="200px" viewBox="0 0 200 200" version="1.1" xmlns="http://www.w3.org/2000/svg" xmlns:xlink="http://www.w3.org/1999/xlink">
    <!-- Generator: Sketch 46.1 (44463) - http://www.bohemiancoding.com/sketch -->
    <title>Artboard</title>
    <desc>Created with Sketch.</desc>
    <defs></defs>
    <g id="Page-1" stroke="none" stroke-width="1" fill="none" fill-rule="evenodd">
        <g id="Artboard" fill-rule="nonzero" fill="#000000">
            <g id="Group">
                <path d="M106.880255,100.743985 C108.915136,100.742193 110.866019,99.9320183 112.304001,98.491579 L184.552386,26.2098173 L184.552386,63.5792834 C184.552386,67.8200887 187.988651,71.2579408 192.227498,71.2579408 C196.466345,71.2579408 199.90261,67.8200887 199.90261,63.5792834 L199.90261,7.67865741 C199.90261,3.43785202 196.466345,0 192.227498,0 L136.352685,0 C132.113837,0 128.677573,3.43785202 128.677573,7.67865741 C128.677573,11.9194628 132.113837,15.3573148 136.352685,15.3573148 L173.704895,15.3573148 L100.944836,87.6390766 C98.7526159,89.8350376 98.0972852,93.1353784 99.2840746,96.002911 C100.470864,98.8704435 103.266386,100.741255 106.368581,100.743985 L106.880255,100.743985 Z" id="Shape"></path>
                <path d="M192.222553,108.368022 C187.983706,108.368022 184.547442,111.805874 184.547442,116.046679 L184.547442,179.52358 C184.547442,182.29424 182.302415,184.540303 179.533035,184.540303 L20.709389,184.540303 C17.9400088,184.540303 15.6949826,182.29424 15.6949826,179.52358 L15.6949826,20.6265629 C15.6949826,17.8559034 17.9400088,15.6098401 20.709389,15.6098401 L80.7799304,15.6098401 C85.0187776,15.60984 88.4550421,12.171988 88.4550421,7.93118266 C88.4550421,3.69037734 85.0187776,0.252525342 80.7799304,0.252525253 L20.709389,0.252525253 C9.40579647,0.252525253 0.242424242,9.42013065 0.242424242,20.728945 L0.242424242,179.52358 C0.242424242,190.832395 9.40579647,200 20.709389,200 L179.533035,200 C190.836628,200 200,190.832395 200,179.52358 L200,116.046679 C200.000183,113.992309 199.177524,112.023535 197.715952,110.580528 C196.25438,109.137521 194.275792,108.34063 192.222553,108.368022 Z" id="Shape"></path>
            </g>
        </g>
    </g>
</svg>